<svg width="100" height="100" viewBox="0 0 100 100" fill="none" xmlns="http://www.w3.org/2000/svg">
<rect width="100" height="100" fill="#E5E5E5"/>
<rect width="100" height="100" fill="white"/>
<g clip-path="url(#clip0_0_1)">
<path d="M11.7898 32.5312H17.2586V57.8461C14.4539 58.3789 12.3937 58.5922 10.157 58.5922C3.48047 58.5922 0 55.5734 0 49.7844C0 44.2094 3.69375 40.5875 9.41094 40.5875C10.2984 40.5875 10.9734 40.6578 11.7898 40.8711V32.5312ZM11.7898 45.2734C11.1508 45.0609 10.618 44.9898 9.94375 44.9898C7.17344 44.9898 5.57578 46.6945 5.57578 49.6773C5.57578 52.5891 7.10234 54.1875 9.90781 54.1875C10.5117 54.1875 11.0094 54.1516 11.7906 54.0453L11.7898 45.2734Z" fill="#092E20"/>
<path d="M25.9586 40.9766V53.6547C25.9586 58.0219 25.6391 60.1172 24.6805 61.9281C23.7922 63.6695 22.6203 64.7695 20.2055 65.9773L15.1273 63.5625C17.5422 62.4258 18.7133 61.432 19.4594 59.9047C20.2406 58.3422 20.4906 56.5312 20.4906 51.7719V40.9766H25.9586ZM20.4898 32.5602H25.9586V38.1711H20.4898V32.5602ZM29.2625 42.2195C31.6766 41.0836 33.9852 40.5867 36.507 40.5867C39.3117 40.5867 41.1586 41.332 41.9758 42.7883C42.4367 43.6047 42.5789 44.6703 42.5789 46.943V58.0578C40.1289 58.4133 37.0398 58.6617 34.7664 58.6617C30.1859 58.6617 28.1258 57.0633 28.1258 53.5125C28.1258 49.6766 30.8602 47.9016 37.5719 47.3328V46.1258C37.5719 45.1312 37.075 44.7766 35.6898 44.7766C33.6664 44.7766 31.393 45.3445 29.2617 46.4461V42.2195H29.2625ZM37.8203 50.9203C34.1984 51.275 33.0266 51.8437 33.0266 53.2641C33.0266 54.3289 33.7016 54.8266 35.193 54.8266C36.0094 54.8266 36.7555 54.7562 37.8203 54.5781V50.9203ZM45.2437 41.8289C48.475 40.9773 51.1383 40.5867 53.8375 40.5867C56.643 40.5867 58.6672 41.225 59.875 42.4687C61.0117 43.6406 61.3664 44.918 61.3664 47.6531V58.3773H55.8977V47.8672C55.8977 45.7719 55.1867 44.9906 53.2336 44.9906C52.4883 44.9906 51.8141 45.0609 50.7125 45.3812V58.3781H45.2437V41.8289ZM63.4914 61.3602C65.4094 62.3547 67.3266 62.8164 69.3508 62.8164C72.9367 62.8164 74.4641 61.3602 74.4641 57.8797V57.7734C73.3992 58.3062 72.3336 58.5195 70.9133 58.5195C66.1187 58.5195 63.0648 55.3586 63.0648 50.3516C63.0648 44.1367 67.575 40.6211 75.5648 40.6211C77.9086 40.6211 80.075 40.8695 82.7031 41.4023L80.8305 45.3477C79.3742 45.0633 80.7133 45.3086 79.6133 45.2023V45.7711L79.6836 48.0789L79.7195 51.0617C79.7555 51.8078 79.7555 52.5539 79.7906 53.2992V54.7914C79.7906 59.4789 79.4 61.6797 78.2281 63.4906C76.5234 66.1547 73.5766 67.4687 69.3859 67.4687C67.2547 67.4687 65.4094 67.1484 63.4906 66.4031V61.3594L63.4914 61.3602ZM74.3586 45.0242H73.7898C72.725 44.9891 71.482 45.2727 70.6289 45.8055C69.3156 46.5516 68.6406 47.9008 68.6406 49.8187C68.6406 52.5531 69.9898 54.1156 72.4047 54.1156C73.1508 54.1156 73.7547 53.9734 74.4641 53.7609V51.8781C74.4641 51.2398 74.4289 50.5289 74.4289 49.7836L74.3937 47.2625L74.3578 45.4508V45.025L74.3586 45.0242ZM91.193 40.5156C96.6617 40.5156 100 43.9602 100 49.5352C100 55.2531 96.5203 58.8398 90.9797 58.8398C85.5109 58.8398 82.1375 55.3945 82.1375 49.8555C82.1375 44.1016 85.618 40.5148 91.193 40.5148V40.5156ZM91.0859 54.4359C93.1812 54.4359 94.425 52.6953 94.425 49.6773C94.425 46.6945 93.2172 44.9187 91.1227 44.9187C88.9555 44.9187 87.7125 46.6594 87.7125 49.6766C87.7125 52.6961 88.9555 54.4359 91.0859 54.4359Z" fill="#092E20"/>
</g>
<defs>
<clipPath id="clip0_0_1">
<rect width="100" height="100" fill="white"/>
</clipPath>
</defs>
</svg>
