<svg width="100" height="129" viewBox="0 0 100 129" fill="none" xmlns="http://www.w3.org/2000/svg">
<rect width="100" height="129" fill="#E5E5E5"/>
<rect id="bg" width="100" height="100" fill="white"/>
<g id="wrdmk">
<path id="link" d="M10.5312 81.9562H13.6188V93.1937H19.3312V96.0437H10.5312V81.9562ZM20.6938 86.5H23.6562V96.0375H20.6938V86.5ZM22.175 81.7562C22.5149 81.7562 22.8472 81.8571 23.1299 82.0459C23.4125 82.2348 23.6328 82.5032 23.7629 82.8173C23.893 83.1313 23.927 83.4769 23.8607 83.8103C23.7944 84.1437 23.6307 84.45 23.3903 84.6903C23.15 84.9307 22.8437 85.0944 22.5103 85.1607C22.1769 85.227 21.8313 85.193 21.5173 85.0629C21.2032 84.9328 20.9348 84.7125 20.7459 84.4299C20.5571 84.1472 20.4562 83.8149 20.4562 83.475C20.4562 83.0192 20.6373 82.582 20.9597 82.2597C21.282 81.9373 21.7192 81.7562 22.175 81.7562V81.7562ZM36.0563 81.9562H39.0188V90.375L42.3813 86.4875H46.0125L42.125 90.9062L45.9313 96.0437H42.2063L39.0563 91.325H39.0188V96.0437H36.0563V81.9562V81.9562ZM25.3 86.5H28.125V87.8062H28.1625C28.4475 87.3197 28.8588 86.9193 29.3528 86.6475C29.8469 86.3757 30.4052 86.2427 30.9688 86.2625C33.975 86.2625 34.525 88.2375 34.525 90.8062V96.0437H31.5875V91.4C31.5875 90.2937 31.5875 88.9 30.0437 88.9C28.5 88.9 28.2625 90.1062 28.2625 91.35V96.0687H25.3V86.5Z" fill="#1D1D1B"/>
<path id="ed" d="M52.2563 90.1563C52.2623 89.9158 52.2193 89.6766 52.13 89.4532C52.0408 89.2298 51.907 89.0269 51.7369 88.8568C51.5668 88.6867 51.3639 88.553 51.1405 88.4637C50.9172 88.3744 50.678 88.3315 50.4375 88.3375C49.9195 88.3048 49.4095 88.4772 49.0177 88.8176C48.6259 89.1579 48.3838 89.6388 48.3438 90.1563H52.2563ZM54.7563 94.3875C54.2618 94.98 53.6421 95.4556 52.9418 95.7798C52.2415 96.104 51.478 96.2689 50.7062 96.2625C47.7437 96.2625 45.3688 94.2875 45.3688 91.2188C45.3688 88.15 47.7437 86.1813 50.7062 86.1813C53.475 86.1813 55.2125 88.1563 55.2125 91.2188V92.15H48.3375C48.4192 92.6798 48.6904 93.1619 49.1008 93.5068C49.5112 93.8517 50.0328 94.0358 50.5688 94.025C50.9909 94.0244 51.406 93.9169 51.7754 93.7125C52.1448 93.5082 52.4565 93.2136 52.6813 92.8563L54.7563 94.3875ZM61.3938 88.8C60.91 88.7851 60.4328 88.9149 60.0232 89.1728C59.6136 89.4307 59.2904 89.805 59.0948 90.2477C58.8992 90.6904 58.8403 91.1815 58.9254 91.6579C59.0106 92.1344 59.236 92.5745 59.5729 92.9221C59.9097 93.2697 60.3426 93.5088 60.8162 93.6088C61.2897 93.7089 61.7824 93.6653 62.231 93.4837C62.6796 93.3021 63.0639 92.9907 63.3345 92.5895C63.6051 92.1882 63.7498 91.7153 63.75 91.2313C63.7765 90.9101 63.7337 90.587 63.6246 90.2838C63.5154 89.9806 63.3423 89.7044 63.1171 89.4738C62.8919 89.2433 62.6199 89.0638 62.3193 88.9476C62.0187 88.8313 61.6967 88.781 61.375 88.8H61.3938ZM66.5 96.0375H63.75V94.7875C63.4064 95.2457 62.9625 95.6192 62.4522 95.8792C61.9419 96.1392 61.3789 96.2789 60.8063 96.2875C57.9563 96.2875 56.0813 94.2313 56.0813 91.325C56.0813 88.6563 57.7438 86.2063 60.4563 86.2063C61.0266 86.1561 61.6006 86.2435 62.1302 86.461C62.6598 86.6785 63.1295 87.0198 63.5 87.4563H63.5375V81.9563H66.5V96.0375Z" fill="#1D1D1B"/>
<path id="sicbg" d="M87.9875 79H70.9438C70.5569 78.9967 70.1846 79.1467 69.9081 79.4173C69.6317 79.6879 69.4737 80.057 69.4688 80.4438V97.5563C69.4737 97.943 69.6317 98.3121 69.9081 98.5827C70.1846 98.8533 70.5569 99.0033 70.9438 99H87.9875C88.1796 99.0025 88.3702 98.9671 88.5486 98.8959C88.727 98.8247 88.8896 98.719 89.0272 98.5849C89.1647 98.4509 89.2745 98.291 89.3503 98.1145C89.426 97.938 89.4663 97.7483 89.4688 97.5563V80.4438C89.4663 80.2517 89.426 80.062 89.3503 79.8855C89.2745 79.709 89.1647 79.5491 89.0272 79.4151C88.8896 79.281 88.727 79.1753 88.5486 79.1041C88.3702 79.0329 88.1796 78.9975 87.9875 79V79Z" fill="#0076B2"/>
<path id="sic" d="M72.4313 86.5H75.4V96.0437H72.4313V86.5ZM73.9125 81.7562C74.2524 81.7562 74.5847 81.8571 74.8674 82.0459C75.15 82.2348 75.3703 82.5032 75.5004 82.8173C75.6305 83.1313 75.6645 83.4769 75.5982 83.8103C75.5319 84.1437 75.3682 84.45 75.1278 84.6903C74.8875 84.9307 74.5812 85.0944 74.2478 85.1607C73.9144 85.227 73.5688 85.193 73.2548 85.0629C72.9407 84.9328 72.6723 84.7125 72.4834 84.4299C72.2946 84.1472 72.1938 83.8149 72.1938 83.475C72.1938 83.0192 72.3748 82.582 72.6972 82.2597C73.0195 81.9373 73.4567 81.7562 73.9125 81.7562V81.7562ZM77.2563 86.5H80.1V87.8062H80.1375C80.4225 87.3197 80.8338 86.9193 81.3278 86.6475C81.8219 86.3757 82.3802 86.2427 82.9438 86.2625C85.95 86.2625 86.5 88.2375 86.5 90.8062V96.0437H83.5375V91.4C83.5375 90.2937 83.5375 88.9 81.9938 88.9C80.45 88.9 80.2125 90.1062 80.2125 91.35V96.0687H77.25L77.2563 86.5Z" fill="white"/>
</g>
<g id="ic">
<path id="icbg" d="M82.5 1.875H17.5C16.0252 1.85999 14.6047 2.43065 13.5501 3.46177C12.4956 4.49288 11.8931 5.90023 11.875 7.375V72.6375C11.8964 74.1101 12.5003 75.5142 13.5545 76.5427C14.6087 77.5711 16.0273 78.14 17.5 78.125H82.5C83.9749 78.1367 85.3945 77.5641 86.4485 76.5323C87.5025 75.5006 88.1052 74.0936 88.125 72.6188V7.35625C88.0987 5.8858 87.4931 4.48517 86.4398 3.45879C85.3865 2.4324 83.9706 1.86324 82.5 1.875Z" fill="#0076B2"/>
<path id="in" d="M23.9 31.125H35.2188V67.5438H23.9V31.125ZM29.5625 13C30.8607 13 32.1297 13.385 33.2091 14.1064C34.2884 14.8278 35.1295 15.8531 35.6261 17.0526C36.1226 18.2521 36.2522 19.5719 35.9984 20.8451C35.7447 22.1183 35.1191 23.2876 34.2007 24.2051C33.2823 25.1226 32.1124 25.7472 30.8389 25.9997C29.5655 26.2522 28.2458 26.1213 27.0468 25.6237C25.8478 25.126 24.8233 24.2839 24.1029 23.2039C23.3826 22.1239 22.9988 20.8545 23 19.5562C23.0017 17.8168 23.6938 16.1493 24.9243 14.9199C26.1549 13.6905 27.8231 13 29.5625 13ZM42.3188 31.125H53.1688V36.125H53.3188C54.8313 33.2625 58.5188 30.2438 64.025 30.2438C75.4875 30.2188 77.6125 37.7625 77.6125 47.5438V67.5438H66.2938V49.825C66.2938 45.6063 66.2188 40.175 60.4125 40.175C54.6063 40.175 53.6188 44.775 53.6188 49.55V67.5438H42.3188V31.125Z" fill="white"/>
</g>
</svg>
