<svg width="100" height="100" viewBox="0 0 100 100" fill="none" xmlns="http://www.w3.org/2000/svg">
<rect width="100" height="100" fill="#E5E5E5"/>
<rect id="bg" width="100" height="100" fill="white"/>
<g id="wrdmk">
<path id="link" d="M5.59766 74.3261H9.07109V92.6463H15.4977V97.2926H5.59766V74.3261ZM17.0305 81.7336H20.3633V97.2824H17.0305V81.7336ZM18.6969 74C19.0793 74 19.4531 74.1643 19.7711 74.4722C20.0891 74.7801 20.3369 75.2177 20.4833 75.7297C20.6296 76.2418 20.6679 76.8051 20.5933 77.3487C20.5187 77.8922 20.3346 78.3915 20.0641 78.7834C19.7937 79.1752 19.4492 79.4421 19.0741 79.5502C18.699 79.6584 18.3102 79.6029 17.9569 79.3908C17.6036 79.1787 17.3016 78.8196 17.0892 78.3588C16.8767 77.898 16.7633 77.3562 16.7633 76.802C16.7633 76.0589 16.967 75.3462 17.3296 74.8207C17.6922 74.2952 18.1841 74 18.6969 74V74ZM34.3133 74.3261H37.6461V88.0509L41.4289 81.7132H45.5141L41.1406 88.917L45.4227 97.2926H41.232L37.6883 89.5997H37.6461V97.2926H34.3133V74.3261V74.3261ZM22.2125 81.7336H25.3906V83.8632H25.4328C25.7534 83.07 26.2161 82.4172 26.7719 81.9741C27.3277 81.5311 27.9559 81.3142 28.5898 81.3464C31.9719 81.3464 32.5906 84.5662 32.5906 88.754V97.2926H29.2859V89.722C29.2859 87.9185 29.2859 85.6463 27.5492 85.6463C25.8125 85.6463 25.5453 87.6128 25.5453 89.6405V97.3333H22.2125V81.7336Z" fill="#1D1D1B"/>
<path id="ed" d="M52.5383 87.3508C52.545 86.9592 52.4967 86.5698 52.3963 86.2061C52.2959 85.8424 52.1454 85.5121 51.954 85.2351C51.7627 84.9582 51.5344 84.7404 51.2831 84.5951C51.0318 84.4497 50.7627 84.3798 50.4922 84.3896C49.9095 84.3363 49.3357 84.617 48.8949 85.1712C48.4541 85.7253 48.1817 86.5083 48.1367 87.3508H52.5383ZM55.3508 94.2399C54.7945 95.2046 54.0974 95.9788 53.3095 96.5067C52.5217 97.0346 51.6627 97.303 50.7945 97.2926C47.4617 97.2926 44.7898 94.077 44.7898 89.0807C44.7898 84.0843 47.4617 80.8789 50.7945 80.8789C53.9094 80.8789 55.8641 84.0945 55.8641 89.0807V90.5969H48.1297C48.2216 91.4595 48.5267 92.2444 48.9884 92.8059C49.4501 93.3674 50.0369 93.6672 50.6398 93.6497C51.1148 93.6487 51.5818 93.4736 51.9974 93.1409C52.4129 92.8082 52.7635 92.3285 53.0164 91.7468L55.3508 94.2399ZM62.818 85.1426C62.2737 85.1183 61.7369 85.3296 61.2761 85.7495C60.8153 86.1695 60.4517 86.7789 60.2317 87.4997C60.0117 88.2205 59.9453 89.02 60.0411 89.7957C60.1369 90.5714 60.3905 91.2881 60.7695 91.854C61.1484 92.4199 61.6355 92.8092 62.1682 92.9721C62.7009 93.135 63.2551 93.064 63.7599 92.7684C64.2646 92.4727 64.6968 91.9657 65.0013 91.3124C65.3057 90.659 65.4685 89.8891 65.4687 89.101C65.4986 88.5781 65.4505 88.052 65.3276 87.5584C65.2048 87.0647 65.0101 86.615 64.7568 86.2397C64.5034 85.8644 64.1973 85.5722 63.8592 85.3829C63.5211 85.1936 63.1588 85.1117 62.7969 85.1426H62.818ZM68.5625 96.9263H65.4687V94.8911C65.0822 95.6372 64.5828 96.2452 64.0087 96.6685C63.4347 97.0918 62.8013 97.3193 62.157 97.3333C58.9508 97.3333 56.8414 93.9855 56.8414 89.2537C56.8414 84.9086 58.7117 80.9196 61.7633 80.9196C62.4049 80.838 63.0507 80.9802 63.6465 81.3344C64.2423 81.6885 64.7707 82.2441 65.1875 82.9548H65.2297V74H68.5625V96.9263Z" fill="#1D1D1B"/>
<path id="sicbg" d="M92.7359 74.0001H73.5617C73.1266 73.9962 72.7076 74.1713 72.3966 74.487C72.0856 74.8027 71.9079 75.2332 71.9023 75.6845V95.6488C71.9079 96.1001 72.0856 96.5307 72.3966 96.8464C72.7076 97.162 73.1266 97.3371 73.5617 97.3332H92.7359C92.952 97.3361 93.1665 97.2948 93.3672 97.2117C93.5679 97.1286 93.7508 97.0054 93.9056 96.849C94.0603 96.6925 94.1838 96.5061 94.2691 96.3001C94.3543 96.0942 94.3996 95.8729 94.4023 95.6488V75.6845C94.3996 75.4604 94.3543 75.2391 94.2691 75.0332C94.1838 74.8273 94.0603 74.6408 93.9056 74.4844C93.7508 74.328 93.5679 74.2047 93.3672 74.1216C93.1665 74.0385 92.952 73.9973 92.7359 74.0001V74.0001Z" fill="#0076B2"/>
<path id="sic" d="M75.2672 82.6288H78.607V95.9651H75.2672V82.6288ZM76.9336 76C77.316 76 77.6899 76.1409 78.0078 76.4048C78.3258 76.6687 78.5736 77.0438 78.72 77.4826C78.8663 77.9215 78.9046 78.4044 78.83 78.8703C78.7554 79.3362 78.5713 79.7641 78.3008 80.1C78.0304 80.4359 77.6859 80.6647 77.3108 80.7573C76.9357 80.85 76.547 80.8025 76.1936 80.6207C75.8403 80.4389 75.5383 80.1311 75.3259 79.7361C75.1134 79.3411 75 78.8768 75 78.4017C75 77.7648 75.2037 77.1539 75.5663 76.7035C75.929 76.253 76.4208 76 76.9336 76V76ZM80.6953 82.6288H83.8945V84.4541H83.9367C84.2573 83.7742 84.72 83.2148 85.2758 82.835C85.8316 82.4552 86.4598 82.2693 87.0937 82.2969C90.4758 82.2969 91.0945 85.0568 91.0945 88.6463V95.9651H87.7617V89.476C87.7617 87.9301 87.7617 85.9825 86.025 85.9825C84.2883 85.9825 84.0211 87.6681 84.0211 89.4061V96H80.6883L80.6953 82.6288Z" fill="white"/>
</g>
<g id="ic">
<path id="icbg" d="M78.4375 1.64062H21.5625C20.272 1.62749 19.0291 2.12682 18.1064 3.02905C17.1836 3.93127 16.6565 5.1627 16.6406 6.45312V63.5578C16.6594 64.8463 17.1878 66.075 18.1102 66.9748C19.0326 67.8747 20.2739 68.3725 21.5625 68.3594H78.4375C79.728 68.3696 80.9702 67.8686 81.8924 66.9658C82.8147 66.063 83.3421 64.8319 83.3594 63.5414V6.43672C83.3364 5.15008 82.8064 3.92452 81.8848 3.02644C80.9632 2.12835 79.7243 1.63033 78.4375 1.64062V1.64062Z" fill="#0076B2"/>
<path id="in" d="M27.1625 27.2344H37.0664V59.1008H27.1625V27.2344ZM32.1172 11.375C33.2531 11.375 34.3635 11.7119 35.3079 12.3431C36.2524 12.9743 36.9883 13.8714 37.4228 14.921C37.8573 15.9706 37.9706 17.1254 37.7486 18.2394C37.5266 19.3535 36.9792 20.3766 36.1756 21.1795C35.372 21.9823 34.3483 22.5288 33.2341 22.7497C32.1198 22.9707 30.9651 22.8562 29.916 22.4207C28.8668 21.9853 27.9704 21.2484 27.3401 20.3034C26.7098 19.3584 26.3739 18.2476 26.375 17.1117C26.3765 15.5897 26.9821 14.1306 28.0588 13.0549C29.1355 11.9792 30.5952 11.375 32.1172 11.375ZM43.2789 27.2344H52.7727V31.6094H52.9039C54.2273 29.1047 57.4539 26.4633 62.2719 26.4633C72.3016 26.4414 74.1609 33.0422 74.1609 41.6008V59.1008H64.257V43.5969C64.257 39.9055 64.1914 35.1531 59.1109 35.1531C54.0305 35.1531 53.1664 39.1781 53.1664 43.3562V59.1008H43.2789V27.2344Z" fill="white"/>
</g>
</svg>
